<?xml version="1.0" encoding="iso-8859-1"?>
<!-- Generator: Adobe Illustrator 18.0.0, SVG Export Plug-In . SVG Version: 6.00 Build 0)  -->
<!DOCTYPE svg PUBLIC "-//W3C//DTD SVG 1.1//EN" "http://www.w3.org/Graphics/SVG/1.1/DTD/svg11.dtd">
<svg version="1.1" id="Capa_1" xmlns="http://www.w3.org/2000/svg" xmlns:xlink="http://www.w3.org/1999/xlink" x="0px" y="0px"
	 viewBox="0 0 251.627 251.627" style="enable-background:new 0 0 251.627 251.627;" xml:space="preserve">
<g>
	<path d="M154.357,78.728L129.585,58.24c-1.849-1.529-4.524-1.529-6.373,0L98.44,78.728c-1.148,0.95-1.813,2.363-1.813,3.853v42.838
		c0,2.761,2.239,5,5,5h49.544c2.761,0,5-2.239,5-5V82.581C156.171,81.091,155.506,79.678,154.357,78.728z M128.248,120.419h-3.699
		v-11.833c0-1.02,0.83-1.85,1.85-1.85s1.85,0.83,1.85,1.85V120.419z M146.171,120.419h-7.922v-11.833
		c0-6.534-5.316-11.85-11.85-11.85s-11.85,5.316-11.85,11.85v11.833h-7.922V84.934l19.772-16.353l19.772,16.353V120.419z"/>
	<path d="M126.399,29.469c-37.654,0-68.288,30.634-68.288,68.288s30.634,68.288,68.288,68.288s68.288-30.634,68.288-68.288
		S164.052,29.469,126.399,29.469z M126.399,156.044c-32.14,0-58.288-26.148-58.288-58.288s26.148-58.288,58.288-58.288
		s58.288,26.148,58.288,58.288S158.538,156.044,126.399,156.044z"/>
	<path d="M125.814,0C70.087,0,24.751,45.336,24.751,101.063c0,54.208,91.91,144.608,95.822,148.43
		c1.457,1.423,3.349,2.135,5.241,2.135c1.892,0,3.784-0.711,5.241-2.135c3.913-3.822,95.822-94.221,95.822-148.43
		C226.876,45.336,181.54,0,125.814,0z M125.814,233.532c-28.179-28.644-86.063-95.199-86.063-132.47
		C39.751,53.607,78.359,15,125.814,15s86.063,38.607,86.063,86.063C211.876,138.333,153.992,204.888,125.814,233.532z"/>
</g>
<g>
</g>
<g>
</g>
<g>
</g>
<g>
</g>
<g>
</g>
<g>
</g>
<g>
</g>
<g>
</g>
<g>
</g>
<g>
</g>
<g>
</g>
<g>
</g>
<g>
</g>
<g>
</g>
<g>
</g>
</svg>
